<svg width="154" height="24" viewBox="0 0 154 24" fill="none" xmlns="http://www.w3.org/2000/svg">
<g clip-path="url(#clip0_9685_475)">
<mask id="mask0_9685_475" style="mask-type:luminance" maskUnits="userSpaceOnUse" x="0" y="0" width="154" height="24">
<path d="M0.0908508 0.954848H153.909V23.0457H0.0908508V0.954848Z" fill="white"/>
</mask>
<g mask="url(#mask0_9685_475)">
<path fill-rule="evenodd" clip-rule="evenodd" d="M32.4848 19.5821C34.8026 19.5821 35.9478 17.6185 36.166 16.4185C36.4387 14.9185 35.7296 13.2549 33.63 13.2549C31.5304 13.2549 30.2488 15.0549 30.0035 16.4456C29.7853 17.6185 30.2763 19.5821 32.4848 19.5821ZM38.7019 22.6092H35.0208L35.2661 21.2731L35.2115 21.2728C34.3663 22.4728 32.7302 23.0457 31.285 23.0457C27.3858 23.0457 25.6679 19.9639 26.3224 16.391C27.0586 12.3274 30.4398 9.76384 33.7392 9.76384C35.7571 9.76384 36.7112 10.7456 37.0112 11.5092L37.0658 11.5095L37.3111 10.2002H40.9923L38.7019 22.6092Z" fill="#1E1E1E"/>
<path fill-rule="evenodd" clip-rule="evenodd" d="M42.9828 10.2004H46.4458L46.2004 11.5094L46.255 11.5096C46.6639 10.9094 47.5366 9.76397 49.6634 9.76397L48.9817 13.5004C47.2638 13.555 46.0094 13.9096 45.6549 15.7914L44.4008 22.6094H40.7196L42.9828 10.2004Z" fill="#1E1E1E"/>
<path fill-rule="evenodd" clip-rule="evenodd" d="M52.1448 5.37293H55.8259L54.108 14.7001H54.1626L58.4164 10.2001H62.7792L57.1349 15.6547L60.3522 22.6094H56.1804L53.8081 16.6365H53.7534L52.6629 22.6094H48.9818L52.1448 5.37293Z" fill="#1E1E1E"/>
<path fill-rule="evenodd" clip-rule="evenodd" d="M70.6868 15.0275C70.6596 14.2911 70.1961 12.9003 68.2873 12.9003C66.3784 12.9003 65.3968 14.2911 65.0968 15.0275H70.6868ZM73.2771 18.7365C72.4319 20.1275 71.3685 21.1911 70.1959 21.9003C69.0507 22.6365 67.742 23.0186 66.4876 23.0186C62.9428 23.0186 60.4887 20.1275 61.1703 16.4457C61.7974 12.9821 65.0968 9.79109 68.86 9.79109C72.6229 9.79109 74.8043 12.7911 74.1226 16.5821C74.0408 17.0729 73.9588 17.2639 73.8498 17.5639H64.6061C64.5515 19.0365 65.6149 19.9093 67.06 19.9093C68.2055 19.9093 68.8871 19.3911 69.5142 18.7365H73.2771Z" fill="#1E1E1E"/>
<path fill-rule="evenodd" clip-rule="evenodd" d="M110.825 19.5821C113.143 19.5821 114.288 17.6185 114.506 16.4185C114.779 14.9185 114.07 13.2549 111.97 13.2549C109.87 13.2549 108.589 15.0549 108.343 16.4456C108.125 17.6185 108.616 19.5821 110.825 19.5821ZM117.042 22.6092H113.361L113.606 21.2731L113.552 21.2728C112.706 22.4731 111.07 23.0457 109.625 23.0457C105.726 23.0457 104.008 19.9639 104.662 16.391C105.399 12.3274 108.78 9.76384 112.079 9.76384C114.097 9.76384 115.051 10.7456 115.351 11.5092L115.406 11.5095L115.651 10.2002H119.332L117.042 22.6092Z" fill="#1E1E1E"/>
<path fill-rule="evenodd" clip-rule="evenodd" d="M140.601 17.8911C139.429 20.7004 136.538 23.0183 133.184 23.0183C129.449 23.0183 127.131 20.0729 127.813 16.3911C128.494 12.7365 131.848 9.79111 135.529 9.79111C138.801 9.79111 141.037 11.9729 141.092 15.0001H137.356C137.111 14.1547 136.538 13.2547 135.011 13.2547C133.266 13.1729 131.821 14.6183 131.494 16.4183C131.166 18.2183 132.094 19.5822 133.839 19.5822C135.366 19.5822 136.266 18.6822 136.811 17.9183H140.601V17.8911Z" fill="#1E1E1E"/>
<path fill-rule="evenodd" clip-rule="evenodd" d="M144.064 5.37293H147.745L146.655 11.3458H146.709C147.527 10.2276 148.863 9.79115 150.172 9.79115C151.344 9.79115 152.681 10.2276 153.281 11.1547C154.099 12.3819 154.017 13.4729 153.608 15.6819L152.326 22.6094H148.645L149.899 15.8458C150.008 15.2458 150.363 13.2547 148.4 13.2547C146.327 13.2547 146 15.1094 145.891 15.7094L144.637 22.6094H140.956L144.064 5.37293Z" fill="#1E1E1E"/>
<path fill-rule="evenodd" clip-rule="evenodd" d="M21.305 5.34576L14.7609 15.164V5.34576H11.5976L0.0906982 22.6094H4.53553L11.0797 12.7912V22.6094H14.2699L20.8141 12.7912V22.6094H24.4952V5.34576H21.305Z" fill="#1E1E1E"/>
<path fill-rule="evenodd" clip-rule="evenodd" d="M83.448 10.2004H81.1302L81.8119 6.54576H78.5671L78.2943 7.96397C77.9944 9.5732 77.0128 10.064 75.6494 10.2004H75.5948L75.077 13.0096H76.8766L75.1041 22.6094H78.7853L80.5578 13.0096H82.8753L83.448 10.2004Z" fill="#1E1E1E"/>
<path fill-rule="evenodd" clip-rule="evenodd" d="M109.952 0.954967L102.863 5.37318H104.826L98.2815 15.164V5.34574H95.0913L88.5471 15.164V5.34574H84.866V22.6096H88.0562L94.6006 12.7914V22.6096H97.7637L109.271 5.37318H111.07L109.952 0.954967Z" fill="#1E1E1E"/>
<path fill-rule="evenodd" clip-rule="evenodd" d="M128.549 10.2004H126.231L126.913 6.54576H123.668L123.395 7.96397C123.095 9.5732 122.113 10.064 120.75 10.2004H120.696L120.178 13.0096H121.977L120.205 22.6094H123.886L125.658 13.0096H127.976L128.549 10.2004Z" fill="#1E1E1E"/>
</g>
</g>
<defs>
<clipPath id="clip0_9685_475">
<rect width="153.818" height="22.0909" fill="white" transform="translate(0.0909119 0.95459)"/>
</clipPath>
</defs>
</svg>
