<svg width="160" height="31" viewBox="0 0 160 31" fill="none" xmlns="http://www.w3.org/2000/svg">
<path fill-rule="evenodd" clip-rule="evenodd" d="M0 14.2164C0 6.35996 6.1244 0 13.6898 0C21.2553 0 27.3797 6.35996 27.3797 14.2164C27.3797 22.0728 21.2553 28.4328 13.6898 28.4328C11.7084 28.4328 9.78703 27.9963 8.10583 27.1857L4.32311 30.8022V24.5669C1.68121 21.9481 0 18.2693 0 14.2164ZM14.1101 21.2622C17.2924 21.2622 20.5348 19.0799 20.5348 14.9646L20.4747 9.727C20.4747 8.91641 19.9343 8.35524 19.0337 8.35524C18.1931 8.35524 17.5926 8.91641 17.5926 9.727V14.9646C17.5926 16.7105 16.2717 18.5187 14.0501 18.5187H13.8099C11.5883 18.5187 10.2674 16.7105 10.2674 14.9646V9.727C10.2674 8.91641 9.66695 8.35524 8.82634 8.35524C7.9257 8.35524 7.38531 8.85406 7.38531 9.727V14.9646C7.38531 19.0799 10.6276 21.2622 13.8099 21.2622H13.9901H14.1101Z" fill="white"/>
<path d="M46.9392 2.68115C46.9396 0.879996 50.0035 0.942364 50.0037 2.74365V8.27197C51.2055 7.40232 52.6488 6.84334 54.2712 6.84326C58.2974 6.84339 61.5424 10.198 61.5427 14.3599C61.5427 18.522 58.2976 21.8773 54.2712 21.8774C52.6488 21.8774 51.0258 21.442 49.824 20.5103C48.6222 19.6406 48.081 18.8947 47.7205 18.2114C47.1198 16.9692 46.9392 15.4786 46.9392 14.1743V2.68115ZM91.9519 6.72021C94.1754 6.72021 95.798 7.52745 96.7595 8.5835C97.661 9.4532 96.5194 11.5031 94.8367 10.3228C94.0554 9.76366 93.334 9.39111 92.072 9.39111C90.8101 9.45325 89.6087 9.76372 89.6687 10.9438C89.7288 13.3666 97.6013 12.2487 97.6013 17.4048C97.6013 20.3244 95.1372 21.8153 92.2527 21.8774C89.9089 21.8774 88.5868 21.5045 86.9041 20.0757C85.3417 18.7712 87.2045 16.7833 88.5867 17.6528C89.5482 18.3362 90.5701 19.0819 92.1326 19.144C93.5747 19.2061 94.4762 18.8954 94.5964 17.8394C94.8363 15.4169 86.7234 16.4102 86.7234 11.0679C86.7236 8.27267 89.0674 6.72025 91.9519 6.72021ZM64.0671 8.08643C64.0671 6.28489 67.1316 6.28489 67.1316 8.08643V20.4487C67.1316 21.3184 66.4109 21.8149 65.6296 21.8149C64.8484 21.8149 64.0672 21.3805 64.0671 20.4487V8.08643ZM76.7468 6.78174C78.309 6.78174 79.8116 7.27897 81.0134 8.21045C81.1338 6.47122 84.0182 6.47158 84.0183 8.27295V20.2622C84.0183 21.1319 83.2976 21.6284 82.5164 21.6284C81.7955 21.6282 81.0737 21.1319 81.0134 20.3247C79.8116 21.2562 78.3691 21.8149 76.7468 21.8149C72.7207 21.8145 69.4753 18.4603 69.4753 14.2983C69.4755 10.1365 72.7208 6.78213 76.7468 6.78174ZM106.435 6.78174C110.402 6.78185 113.707 10.1364 113.707 14.2983C113.707 14.2983 113.707 14.3608 113.767 14.3608C113.767 14.9818 113.286 15.5403 112.265 15.5405H102.349C102.71 17.5284 104.452 18.896 106.736 18.896C109.02 18.896 109.561 18.4608 110.642 17.7153C112.445 16.5354 113.888 18.7717 112.265 20.0142C110.763 21.1323 109.199 21.8149 106.676 21.8149C102.649 21.8148 99.1638 18.9573 99.1638 14.2983C99.164 10.1364 102.409 6.78186 106.435 6.78174ZM126.808 2.74365C126.809 0.942401 129.873 0.880356 129.873 2.61963V14.1118C129.873 15.4784 129.753 16.9075 129.092 18.1499C128.731 18.8332 128.19 19.6412 126.988 20.4487C125.786 21.3804 124.163 21.8149 122.541 21.8149C118.515 21.8147 115.269 18.4603 115.269 14.2983C115.269 10.1365 118.515 6.78202 122.541 6.78174C124.103 6.78174 125.606 7.2787 126.808 8.21045V2.74365ZM37.324 6.78174C40.9898 6.78174 44.776 9.26666 44.7761 13.9878V20.0142C44.776 21.0079 44.115 21.6293 43.0935 21.6294C42.1321 21.6294 41.4111 20.9458 41.4109 20.0142V13.9878C41.4108 11.938 39.8482 9.88842 37.2644 9.88818H36.9636C34.4396 9.88818 32.8768 12 32.8767 13.9878V20.0142C32.8766 20.9458 32.2156 21.6294 31.1941 21.6294C30.1726 21.6294 29.5116 21.0079 29.5115 20.0142V13.9878C29.5116 9.26666 33.2978 6.78174 36.9636 6.78174H37.324ZM54.2712 9.82568C52.0479 9.82586 50.1841 11.6271 50.0037 13.9253V14.6714C50.1841 16.9697 52.0479 18.7708 54.2712 18.771C56.675 18.7709 58.5984 16.7831 58.5984 14.2983C58.5983 11.8136 56.6749 9.82581 54.2712 9.82568ZM76.6873 9.82568C74.2837 9.82595 72.3603 11.8138 72.3601 14.2983C72.3601 16.7831 74.2836 18.7707 76.6873 18.771C78.9707 18.7708 80.7735 16.9697 80.9539 14.6714V13.9253C80.7733 11.6272 78.9706 9.82584 76.6873 9.82568ZM122.541 9.82568C120.137 9.82595 118.214 11.8138 118.214 14.2983C118.214 16.7831 120.137 18.7707 122.541 18.771C124.764 18.771 126.627 16.9701 126.807 14.7339V13.9263C126.627 11.6278 124.824 9.82568 122.541 9.82568ZM106.435 9.82568C104.452 9.82578 102.89 11.0686 102.349 12.9321H110.522C109.981 11.1307 108.418 9.82577 106.435 9.82568ZM65.6296 1.43896C66.5922 1.43897 67.3728 2.21855 67.3728 3.1792C67.3726 4.13966 66.592 4.91845 65.6296 4.91846C64.6673 4.91846 63.8867 4.13966 63.8865 3.1792C63.8865 2.21855 64.6671 1.43896 65.6296 1.43896Z" fill="white"/>
<path d="M138.869 1.54004C141.376 1.54024 143.405 3.58053 143.405 6.10059C143.405 8.62048 141.376 10.6609 138.869 10.6611C137.854 10.6611 136.958 10.3007 136.182 9.76074V13.0605C136.182 14.1405 134.332 14.1405 134.332 13.0605V6.16016C134.332 5.38018 134.391 4.47974 134.809 3.75977C135.048 3.33982 135.347 2.85979 136.123 2.37988C136.839 1.77998 137.854 1.54004 138.869 1.54004ZM155.045 1.47949C157.552 1.47969 159.581 3.52019 159.582 6.04004C159.581 8.55999 157.552 10.6004 155.045 10.6006C152.538 10.6004 150.508 8.56 150.508 6.04004C150.568 3.52017 152.598 1.47968 155.045 1.47949ZM149.375 1.41992C149.613 1.41993 149.852 1.4802 150.031 1.66016C150.21 1.84017 150.27 2.0803 150.27 2.32031C150.27 2.56022 150.21 2.80054 150.031 2.98047C149.852 3.16026 149.673 3.28025 149.375 3.28027C148.957 3.28027 148.3 3.45967 148.061 3.63965C147.703 3.87964 146.927 4.65996 146.927 5.7998V9.64062C146.927 9.8806 146.867 10.1208 146.688 10.3008C146.509 10.4806 146.27 10.541 145.972 10.541C145.733 10.541 145.434 10.4808 145.255 10.3008C145.017 10.2408 145.017 10.0006 145.017 9.76074V2.37988C145.017 2.13992 145.136 1.89971 145.315 1.71973C145.494 1.53971 145.674 1.47949 145.913 1.47949C146.151 1.47956 146.39 1.53989 146.569 1.71973C146.748 1.89971 146.868 2.1399 146.868 2.37988V2.5C146.987 2.32016 147.106 2.19966 147.225 2.13965C147.882 1.65961 148.599 1.41992 149.315 1.41992H149.375ZM138.869 3.40039C137.436 3.40039 136.302 4.48025 136.182 5.86035V6.34082C136.302 7.72065 137.496 8.80078 138.869 8.80078C140.361 8.80058 141.554 7.60041 141.554 6.10059C141.554 4.6006 140.361 3.40059 138.869 3.40039ZM155.045 3.33984C153.553 3.34002 152.359 4.54025 152.359 6.04004C152.359 7.53993 153.553 8.74005 155.045 8.74023C156.538 8.74003 157.731 7.53991 157.731 6.04004C157.731 4.54026 156.537 3.34004 155.045 3.33984Z" fill="white"/>
</svg>
