<svg width="147" height="32" viewBox="0 0 147 32" fill="none" xmlns="http://www.w3.org/2000/svg">
<g clip-path="url(#clip0_9685_436)">
<path d="M8.54605 16.7989V22.4545H3.90088V16.7989H0.277161V31.1838H3.90088V25.5036H8.54605V31.1838H11.659V16.7989H8.54605Z" fill="#1E1E1E"/>
<path d="M89.1434 16.7743V31.1838H97.7771V28.1347H92.2564V25.479H97.7771V22.4299H92.2564V19.8234H97.7771V16.7743H89.1434Z" fill="#1E1E1E"/>
<mask id="mask0_9685_436" style="mask-type:luminance" maskUnits="userSpaceOnUse" x="0" y="0" width="147" height="32">
<path d="M0.2771 0.594463H146.223V31.4053H0.2771V0.594463Z" fill="white"/>
</mask>
<g mask="url(#mask0_9685_436)">
<path d="M37.244 26.2906C37.244 27.4709 36.3198 28.4053 35.1281 28.4053C33.9608 28.4053 33.0852 27.4955 33.0852 26.2906V16.799H29.9722V26.1184C29.9722 29.3643 31.9665 31.3806 35.1768 31.3806C38.387 31.3806 40.3813 29.3643 40.3813 26.1184V16.799H37.2683V26.2906" fill="#1E1E1E"/>
<path d="M20.8035 28.2577C18.5174 28.2577 16.6447 26.3397 16.6447 24.0037C16.6447 21.6431 18.5174 19.7497 20.8035 19.7497C23.1139 19.7497 24.9866 21.6676 24.9866 24.0037C24.9622 26.3397 23.0896 28.2577 20.8035 28.2577ZM20.8035 16.6022C16.7906 16.6022 13.556 19.9218 13.556 23.9791C13.556 28.0364 16.8149 31.356 20.8035 31.356C24.8163 31.356 28.0752 28.0364 28.0752 23.9791C28.0752 19.9218 24.8163 16.6022 20.8035 16.6022Z" fill="#1E1E1E"/>
<path d="M138.562 22.8479V25.8971H142.77C142.235 27.397 140.921 28.2823 139.243 28.2823C136.811 28.2823 134.987 26.438 134.987 23.9791C134.987 21.6185 136.86 19.6759 139.17 19.6759C140.848 19.6759 142.064 20.4136 142.867 21.9381L142.989 22.184L145.712 20.5119L145.591 20.2906C144.302 17.9792 141.894 16.6022 139.146 16.6022C135.011 16.6022 131.898 19.7742 131.898 23.9791C131.898 28.1839 135.06 31.356 139.268 31.356C143.232 31.356 146.223 28.2577 146.223 24.1758V22.8479H138.562Z" fill="#1E1E1E"/>
<path d="M126.767 25.479L121.343 16.7989H117.987V31.1838H121.1V22.184L126.718 31.1838H129.904V16.7989H126.791V25.479" fill="#1E1E1E"/>
<path d="M112.248 16.7989H115.361V31.1838H112.248V16.7989Z" fill="#1E1E1E"/>
<path d="M78.0534 31.1838H86.6871V28.1347H81.1664V25.479H86.6871V22.4299H81.1664V19.8234H86.6871V16.7743H78.0534V31.1838Z" fill="#1E1E1E"/>
<path d="M48.3098 22.4301L48.0179 22.3317C46.583 21.8645 45.7075 21.5202 45.7075 20.758C45.7075 19.9711 46.3398 19.4793 47.337 19.4793C48.3098 19.4793 49.0394 19.8727 49.5744 20.6842L49.7204 20.9055L52.3226 18.9137L52.1281 18.6924C51.1309 17.6597 49.7933 16.6023 47.337 16.6023C44.5888 16.6023 42.5216 18.4219 42.5216 20.8563C42.5216 23.7825 44.8806 24.5202 46.583 25.0611L46.8019 25.1349C48.1152 25.5284 49.234 25.8726 49.234 26.7824C49.234 27.5447 48.6746 28.3562 47.4343 28.3562C46.3155 28.3562 45.3184 27.7168 44.6861 26.6349L44.5401 26.3644L41.719 28.6266L41.8892 28.8234C43.3971 30.5446 45.2211 31.4053 47.4586 31.4053C49.8906 31.4053 52.4686 29.8069 52.4686 26.807C52.4442 23.7825 49.842 22.9464 48.3098 22.4301Z" fill="#1E1E1E"/>
<path d="M103.347 19.7742H105C106.289 19.7742 107.238 20.7087 107.238 22.0119C107.238 23.3152 106.289 24.2496 105 24.2496H103.347V19.7742ZM105.195 16.7989H100.234V31.1838H103.347V27.2249H105.171C108.089 27.2249 110.375 24.9381 110.375 22.0119C110.399 19.0857 108.113 16.7989 105.195 16.7989Z" fill="#1E1E1E"/>
<path d="M54.3655 31.1838H62.9992V28.1347H57.5029V25.479H63.0236V22.4299H57.5029V19.8234H63.0236V16.7743H54.3899V31.1838" fill="#1E1E1E"/>
<path d="M76.4725 16.7989H72.6299L68.5684 21.9135V16.7989H65.4554V31.1838H68.5684V26.1921L69.6872 24.7659L73.165 31.1838H76.7157L71.9003 22.4791L76.4725 16.7989Z" fill="#1E1E1E"/>
<path d="M95.3208 3.7665C98.2879 3.7665 99.9903 5.31565 99.9903 7.99592C99.9903 10.5287 98.1663 12.2253 95.4181 12.2253H94.7371V3.79109H95.3208V3.7665ZM103.128 7.99592C103.128 3.69274 100.112 0.815749 95.637 0.815749H91.6484V15.2007H95.7586C100.015 15.1761 103.128 12.1516 103.128 7.99592Z" fill="#1E1E1E"/>
<path d="M66.4769 3.71732C68.7874 3.71732 70.66 5.63531 70.66 7.97132C70.66 10.3073 68.7874 12.2253 66.4769 12.2253C64.1908 12.2253 62.3182 10.3073 62.3182 7.97132C62.3182 5.63531 64.1665 3.71732 66.4769 3.71732ZM66.4769 15.3728C70.4898 15.3728 73.7487 12.0532 73.7487 7.99591C73.7487 3.91403 70.4898 0.619022 66.4769 0.619022C62.4641 0.619022 59.2295 3.93862 59.2295 7.99591C59.2052 12.0532 62.4641 15.3728 66.4769 15.3728Z" fill="#1E1E1E"/>
<path d="M82.4067 12.2499C80.1206 12.2499 78.2479 10.3319 78.2479 7.99584C78.2479 5.65983 80.1206 3.74184 82.4067 3.74184C84.7171 3.74184 86.5898 5.65983 86.5898 7.99584C86.5898 10.3319 84.7171 12.2499 82.4067 12.2499ZM82.4067 0.594364C78.3938 0.594364 75.1592 3.91396 75.1592 7.97125C75.1592 12.0285 78.4182 15.3481 82.4067 15.3481C86.4195 15.3481 89.6784 12.0285 89.6784 7.97125C89.6784 3.91396 86.4195 0.594364 82.4067 0.594364Z" fill="#1E1E1E"/>
<path d="M50.8391 15.3728C54.8033 15.3728 57.7947 12.2745 57.7947 8.19263V6.8402H50.1581V9.88931H54.3655C53.8061 11.3893 52.5172 12.2745 50.8391 12.2745C48.407 12.2745 46.583 10.4303 46.583 7.97132C46.583 5.61072 48.4557 3.66814 50.7661 3.66814C52.4442 3.66814 53.6602 4.40583 54.4628 5.93038L54.5844 6.17628L57.3083 4.50418L57.1867 4.28288C55.8977 1.97145 53.49 0.594433 50.7418 0.594433C46.6073 0.594433 43.4943 3.7665 43.4943 7.97132C43.47 12.2007 46.6317 15.3728 50.8391 15.3728Z" fill="#1E1E1E"/>
</g>
</g>
<defs>
<clipPath id="clip0_9685_436">
<rect width="145.946" height="30.8108" fill="white" transform="translate(0.277039 0.594482)"/>
</clipPath>
</defs>
</svg>
