<svg width="132" height="40" viewBox="0 0 132 40" fill="none" xmlns="http://www.w3.org/2000/svg">
<g clip-path="url(#clip0_9685_423)">
<path d="M6.95885 31.6686H0.5V0H6.95885V31.6686ZM6.97621 15.344L15.3276 0H21.8385L13.3135 14.9312L21.9253 31.6858H15.2755L6.97621 15.344Z" fill="#1E1E1E"/>
<path d="M22.8438 31.6684V10.1489H28.7644V31.6684H22.8438Z" fill="#1E1E1E"/>
<path d="M41.1813 20.8828C41.1813 26.9895 39.8271 27.4367 38.8721 27.4883C38.2297 27.5227 37.6047 27.2475 37.3269 26.9895V14.759C37.7262 14.4666 38.386 14.2601 38.9589 14.2601C40.0875 14.2773 41.1813 14.845 41.1813 20.8828ZM47.1367 20.7624C47.1367 13.6237 45.2789 9.70166 41.5807 9.70166C39.6882 9.70166 38.2644 10.4069 37.3095 11.7831V10.1489H31.4062V39.8909H37.3269V30.7223C38.2123 31.548 39.6882 32.1156 41.3202 32.1156C44.9316 32.0984 47.1367 28.6237 47.1367 20.7624Z" fill="#1E1E1E"/>
<path d="M49.3594 31.6683V0.0341797H55.28V31.6511H49.3594V31.6683Z" fill="#1E1E1E"/>
<path d="M57.9688 31.6684V10.1489H63.8894V31.6684H57.9688Z" fill="#1E1E1E"/>
<path d="M76.2508 31.6687V15.6194C76.2508 14.7594 75.4 14.2605 74.4451 14.2605C73.5943 14.2605 72.9693 14.5357 72.4657 14.811V31.6687H66.5625V10.1493H72.4831V11.8178C73.5075 10.8373 75.2438 9.73643 77.0494 9.68482C79.8274 9.59881 82.1367 10.8373 82.1367 14.3465V31.6687H76.2508Z" fill="#1E1E1E"/>
<path d="M94.1184 27.0411C93.7538 27.3336 93.0766 27.54 92.4863 27.54C91.4272 27.54 90.2292 26.9723 90.2292 20.9345C90.2292 14.8279 91.5488 14.329 92.5384 14.329C93.1808 14.329 93.8406 14.5698 94.1184 14.8279V27.0411ZM99.9869 31.7372V10.149H94.1184V11.6971C93.3892 10.3554 92.0349 9.5813 90.0903 9.70171C86.722 9.89093 84.3086 13.1765 84.3086 21.0549C84.3086 28.1937 86.3574 32.1157 90.0556 32.1157C92.0002 32.1157 93.1808 31.5824 94.1184 30.6363V32.3565C94.1184 34.5755 92.278 36.0033 87.2602 35.8485V39.8909C94.3441 40.5618 99.9869 38.1707 99.9869 31.7372Z" fill="#1E1E1E"/>
<path d="M111.984 18.7154H107.747C107.886 14.6214 108.772 13.8129 109.883 13.8129C111.012 13.7957 111.897 14.8966 111.984 18.7154ZM117.644 22.4654C117.644 22.087 117.644 21.1065 117.644 20.8656C117.644 13.4345 114.762 9.70166 109.987 9.70166C104.622 9.70166 102.035 13.7269 102.035 21.0721C102.035 28.2108 104.952 32.1156 109.709 32.1156C115.092 32.1156 117.019 28.6581 117.505 25.1833H112.262C112.262 27.6432 110.942 27.8324 110.161 27.8152C109.032 27.7808 107.765 27.2475 107.765 22.4826H117.644V22.4654Z" fill="#1E1E1E"/>
<path d="M131.464 15.4818C130.683 14.9485 129.172 14.6905 128.2 14.6905C127.367 14.6905 125.943 14.9829 125.352 15.4818V31.6687H119.449V10.1492H125.37V11.9726C125.943 10.7685 127.644 9.77075 129.085 9.70195C130.197 9.65034 130.804 9.75355 131.499 9.99438V15.4818H131.464Z" fill="#1E1E1E"/>
<path d="M28.7644 1.75439H22.8438V7.62021H28.7644V1.75439Z" fill="#1E1E1E"/>
<path d="M63.8894 1.75439H57.9688V7.62021H63.8894V1.75439Z" fill="#1E1E1E"/>
</g>
<defs>
<clipPath id="clip0_9685_423">
<rect width="132" height="40" fill="white"/>
</clipPath>
</defs>
</svg>
