<svg width="119" height="44" viewBox="0 0 119 44" fill="none" xmlns="http://www.w3.org/2000/svg">
<path fill-rule="evenodd" clip-rule="evenodd" d="M42.55 13V26H45.75H48.95V21C48.95 17.7 48.95 15.9 48.95 15.7C49.05 15.2 49.15 14.7 49.45 14.3C49.85 13.6 50.55 13.3 51.35 13.4C52.45 13.5 53.15 14.1 53.35 15.4C53.35 15.6 53.35 17.6 53.35 20.8V25.9H56.55H59.75V19.9C59.75 14.8 59.75 13.8 59.65 13.3C59.45 11.5 58.85 10.1 57.75 9.1C56.85 8.2 55.75 7.7 54.45 7.5C53.95 7.4 52.55 7.5 52.15 7.6C50.95 7.9 50.05 8.3 49.25 9.2L48.75 9.6V4.8V0H45.55H42.35V13H42.55ZM110.55 0.200001C110.35 0.600001 103.85 16.3 103.85 16.3C103.85 16.3 105.55 16.3 107.65 16.3H111.45L114.85 8.2C116.75 3.7 118.25 0 118.25 0C118.25 0 116.55 0 114.45 0H110.65L110.55 0.200001ZM28.55 7.6C27.15 7.8 26.05 8.2 24.95 8.9C22.75 10.3 21.35 12.7 20.95 15.5C20.75 16.8 20.85 18.4 21.15 19.6C21.95 22.7 24.05 25.1 26.75 26C27.75 26.3 28.15 26.4 29.35 26.4C30.25 26.4 30.55 26.4 30.85 26.3C32.15 26 33.05 25.5 33.85 24.7L34.25 24.3V25.1V25.9H37.35H40.45V16.9V7.9H37.35H34.25V8.7V9.5L33.95 9.2C33.25 8.4 32.25 7.9 30.95 7.6C30.55 7.5 30.35 7.5 29.55 7.5C29.05 7.6 28.65 7.6 28.55 7.6ZM69.35 7.6C67.65 7.8 65.85 8.6 64.55 9.6C62.05 11.7 60.75 15 61.25 18.4C61.75 22.2 64.45 25.1 68.25 26.1C69.05 26.3 69.85 26.4 70.85 26.4C72.65 26.4 73.95 26.1 75.35 25.4C78.15 24 79.95 21.5 80.35 18.4C80.45 17.6 80.45 16.3 80.35 15.6C80.15 14.1 79.55 12.6 78.65 11.4C78.25 10.9 77.45 10 76.95 9.6C75.55 8.5 73.95 7.8 72.15 7.6C71.45 7.5 70.05 7.5 69.35 7.6ZM89.75 7.6C88.05 7.8 86.35 8.5 85.05 9.6C84.55 10 83.65 10.9 83.35 11.4C82.45 12.6 81.95 14.1 81.65 15.6C81.55 16.3 81.55 17.7 81.65 18.4C82.25 22.4 85.15 25.5 89.15 26.3C89.95 26.5 90.35 26.5 91.25 26.5C92.95 26.5 94.45 26.2 95.85 25.4C99.55 23.5 101.55 19.3 100.65 15C99.85 11 96.65 8.1 92.55 7.6C91.85 7.5 90.45 7.5 89.75 7.6ZM0.25 8C0.25 8 1.95 12.1 4.05 17.1C6.15 22.1 7.85 26.2 7.85 26.2C7.85 26.2 7.25 27.7 6.45 29.5C5.65 31.3 5.05 32.7 5.05 32.8C5.05 32.9 6.55 32.8 8.45 32.8H11.85L16.95 20.5C19.75 13.7 22.05 8.2 22.05 8.1C22.05 8.1 21.35 8 18.65 8.1H15.25L13.15 13.3C12.25 16.1 11.35 18.5 11.35 18.5C11.35 18.5 10.45 16.1 9.25 13.3L7.25 8.1H3.75C1.85 8 0.25 8 0.25 8ZM31.65 13.4C32.95 13.7 33.95 14.7 34.35 16C34.45 16.5 34.45 17.4 34.35 17.9C34.05 19.2 33.05 20.2 31.75 20.5C31.25 20.6 30.35 20.6 29.85 20.5C28.75 20.2 27.75 19.4 27.35 18.4C26.85 17.3 27.05 15.9 27.65 14.9C28.55 13.6 30.05 13.1 31.65 13.4ZM71.55 13.5C72.95 13.7 74.05 14.8 74.35 16.2C74.45 16.7 74.45 17.5 74.35 18C74.05 19.3 73.05 20.2 71.85 20.6C71.45 20.7 70.35 20.7 69.95 20.6C68.95 20.3 68.15 19.6 67.65 18.7C67.35 18.1 67.35 17.8 67.35 17.1C67.35 16.5 67.45 16.2 67.65 15.7C67.95 15.1 68.35 14.5 68.95 14.1C69.55 13.5 70.55 13.3 71.55 13.5ZM91.85 13.5C93.05 13.7 94.05 14.5 94.45 15.6C94.65 16.1 94.75 16.4 94.75 17C94.75 17.7 94.65 18 94.45 18.6C94.05 19.5 93.15 20.2 92.15 20.5C91.75 20.6 90.65 20.6 90.25 20.5C89.05 20.2 88.05 19.2 87.75 17.9C87.65 17.4 87.65 16.5 87.75 16C88.15 14.4 89.55 13.3 91.15 13.3C91.35 13.4 91.65 13.4 91.85 13.5ZM105.45 17.9C103.55 18.1 102.15 19.5 101.75 21.3C101.65 21.8 101.65 22.7 101.75 23.2C102.15 24.8 103.35 25.9 104.95 26.3C105.15 26.3 105.55 26.4 105.85 26.4C107.05 26.4 108.05 26 108.85 25.2C109.75 24.3 110.05 23.4 110.05 22.2C110.05 20.7 109.35 19.4 108.15 18.7C107.35 18 106.25 17.8 105.45 17.9ZM52.75 27.7C51.45 28.1 50.85 29.6 51.55 30.7C51.75 31 52.15 31.4 52.45 31.5C52.75 31.6 52.75 31.6 53.35 31.6C53.85 31.6 53.95 31.6 54.25 31.5C54.65 31.3 55.05 30.9 55.25 30.5C55.75 29.5 55.25 28.3 54.25 27.8C53.95 27.6 53.85 27.6 53.45 27.6C53.05 27.6 52.95 27.6 52.75 27.7ZM47.35 27.8C45.65 28.1 44.55 29.2 44.05 31C43.95 31.3 43.95 31.6 43.95 32V32.7H43.25H42.55V34.2V35.7H43.25H43.95V39.3V42.9H45.85H47.75V39.3V35.7H49.05H50.35V34.2V32.7H49.05H47.75V32.4C47.85 31.7 48.15 31.2 48.75 31.1C49.15 31 49.75 31 50.15 31.2C50.35 31.3 50.45 31.3 50.45 31.3C50.45 31.3 50.45 30.6 50.45 29.7V28.1L50.15 28C49.75 27.8 49.25 27.8 48.55 27.8C48.05 27.7 47.65 27.8 47.35 27.8ZM62.55 32.5C61.75 32.7 61.15 33.1 60.75 33.6L60.55 33.9V33.3V32.7H58.65H56.75V37.8V42.9H58.65H60.55V40.1C60.55 38.5 60.55 37.2 60.55 37C60.65 36.6 60.85 36.2 61.05 36C61.55 35.6 62.45 35.7 62.85 36.2C63.15 36.6 63.15 36.6 63.15 39.8V42.8H65.05H66.95V39.4C66.95 35.8 66.95 35.4 66.75 34.7C66.55 34.1 66.35 33.6 65.85 33.2C65.45 32.8 65.05 32.5 64.45 32.4C63.95 32.4 62.95 32.4 62.55 32.5ZM72.05 32.4C71.45 32.5 70.55 32.8 70.05 33.2C68.95 34 68.25 35.2 67.95 36.7C67.85 37.3 67.85 38.4 67.95 39C68.15 39.9 68.45 40.8 68.95 41.4C69.65 42.3 70.55 42.9 71.65 43.1C72.25 43.2 73.25 43.2 73.75 43C74.35 42.8 74.75 42.6 75.25 42.2L75.65 41.8V42.3V42.8H77.55H79.45V37.7V32.6H77.55H75.65V33.1V33.6L75.35 33.5C74.85 33 74.15 32.6 73.35 32.5C73.05 32.4 72.35 32.4 72.05 32.4ZM86.55 32.5C85.85 32.6 85.15 33.1 84.75 33.6L84.55 33.8V33.2V32.6H82.65H80.75V37.7V42.8H82.65H84.55V39.9C84.55 36.8 84.55 36.8 84.75 36.3C84.95 35.9 85.35 35.7 85.75 35.7C86.15 35.7 86.35 35.8 86.65 36C87.05 36.4 87.05 36.3 87.05 39.7V42.7H88.95H90.85V39C90.85 35.3 90.85 35.3 90.75 34.9C90.65 34.7 90.55 34.3 90.45 34C90.25 33.6 90.15 33.5 89.85 33.2C89.45 32.8 89.15 32.6 88.75 32.4C88.05 32.4 87.25 32.3 86.55 32.5ZM96.45 32.5C94.75 32.8 93.45 33.6 92.65 35C92.45 35.4 92.25 35.9 92.05 36.4C91.95 36.9 91.95 37 91.95 37.8C91.95 38.7 91.95 39 92.25 39.7C92.85 41.4 94.25 42.7 96.15 43.1C96.45 43.2 96.75 43.2 97.45 43.2C98.45 43.2 98.85 43.1 99.55 42.8L99.95 42.6V40.9V39.2L99.65 39.4C99.15 39.7 98.85 39.8 98.25 39.8C97.65 39.8 97.35 39.8 96.95 39.6C96.55 39.4 96.25 39.1 96.05 38.7C95.95 38.4 95.95 38.4 95.95 37.9C95.95 37.5 95.95 37.4 96.05 37.1C96.35 36.3 97.05 35.9 98.05 35.8C98.75 35.8 99.05 35.8 100.05 36.3C100.05 36.3 100.05 35.5 100.05 34.6V32.9L99.75 32.8C98.65 32.4 97.45 32.3 96.45 32.5ZM105.05 32.5C102.15 33 100.35 35.5 100.55 38.4C100.65 39.4 100.95 40.3 101.45 41C102.15 42.1 103.25 42.8 104.65 43.1C105.25 43.2 106.85 43.2 107.55 43.1C108.55 42.9 109.45 42.4 110.15 41.7C110.45 41.4 110.95 40.7 110.95 40.7C110.95 40.7 110.25 40.4 109.35 40.1L107.75 39.5L107.55 39.7C107.25 40 107.05 40.1 106.65 40.2C105.55 40.5 104.45 39.9 104.25 38.9V38.7H107.75H111.25V37.8C111.25 37.2 111.25 36.8 111.15 36.6C110.95 35.4 110.45 34.6 109.75 33.8C109.05 33.1 108.25 32.7 107.15 32.5C106.75 32.4 105.55 32.4 105.05 32.5ZM51.45 37.8V42.9H53.35H55.25V37.8V32.7H53.35H51.45V37.8ZM106.55 35.3C106.85 35.4 106.95 35.5 107.25 35.7C107.45 35.9 107.65 36.1 107.65 36.4V36.6H105.95C104.05 36.6 104.15 36.6 104.35 36.2C104.65 35.5 105.55 35.1 106.55 35.3ZM74.25 35.8C74.75 35.9 75.35 36.4 75.55 36.9C76.05 38 75.55 39.3 74.35 39.7C73.95 39.8 73.35 39.8 72.95 39.7C72.35 39.5 71.75 39 71.65 38.4C71.55 38.1 71.55 38 71.55 37.7C71.55 37.3 71.55 37.2 71.75 36.9C72.15 36 73.15 35.6 74.25 35.8Z" fill="#1E1E1E"/>
</svg>
